<?xml version="1.0" encoding="utf-8"?>
<!-- Generator: Adobe Illustrator 16.0.0, SVG Export Plug-In . SVG Version: 6.00 Build 0)  -->
<!DOCTYPE svg PUBLIC "-//W3C//DTD SVG 1.1//EN" "http://www.w3.org/Graphics/SVG/1.1/DTD/svg11.dtd">
<svg version="1.1" id="Layer_1" xmlns="http://www.w3.org/2000/svg" xmlns:xlink="http://www.w3.org/1999/xlink" x="0px" y="0px"
	 width="1219.9px" height="239px" viewBox="0 0 1219.9 239" enable-background="new 0 0 1219.9 239" xml:space="preserve">
<g>
	<path fill="#FFFFFF" d="M0,0v92.111h93.192l28.798-88.63l28.798,88.63h93.192h93.192l28.798-88.63l28.798,88.63h93.192
		l-75.395,54.777l28.799,88.631l-75.395-54.778l-75.394,54.778l28.797-88.631L243.98,92.111l-75.394,54.777l28.799,88.631
		l-75.395-54.778L46.596,235.52l28.798-88.631L0,92.111V239h1219.9V92.111l-75.395,54.777l28.8,88.631l-75.394-54.778
		l-75.395,54.778l28.798-88.631l-75.395-54.777h93.193l28.798-88.63l28.797,88.63h93.191V0H0z M929.326,235.52l-75.395-54.778
		l-75.395,54.778l28.798-88.631L731.94,92.111l-75.395,54.777l28.8,88.631l-75.394-54.778l-75.395,54.778l28.797-88.631
		L487.96,92.111h93.193l28.798-88.63l28.797,88.63h93.191h93.192l28.799-88.63l28.798,88.63h93.19l-75.394,54.777L929.326,235.52z"
		/>
</g>
</svg>
