<?xml version="1.0" encoding="utf-8"?>
<!-- Generator: Adobe Illustrator 16.0.0, SVG Export Plug-In . SVG Version: 6.00 Build 0)  -->
<!DOCTYPE svg PUBLIC "-//W3C//DTD SVG 1.1//EN" "http://www.w3.org/Graphics/SVG/1.1/DTD/svg11.dtd">
<svg version="1.1" id="Capa_1" xmlns="http://www.w3.org/2000/svg" xmlns:xlink="http://www.w3.org/1999/xlink" x="0px" y="0px"
	 width="240.393px" height="245.312px" viewBox="-211.854 -216.188 240.393 245.312"
	 enable-background="new -211.854 -216.188 240.393 245.312" xml:space="preserve">
<g>
	<path fill="#FFFFFF" d="M-147.253-148.981c27.033-27.029,68.369-30.888,99.602-11.786c-10.583,10.477-22.792,22.714-22.792,22.714
		c-8.539,10.251,1.051,16.163,5.928,16.011l57.08-0.017c3.013,0,5.477,0.017,5.477,0.017s2.487,0,5.509,0h11.067
		c3.022,0,5.476-2.463,5.486-5.489v-78.488c0.352-7.18-7.538-14.138-15.675-6.129c0,0-13.473,13.124-22.768,22.341
		c-47.571-34.747-114.61-30.814-157.58,12.155c-25.075,25.071-36.766,58.332-35.362,91.182h40.609
		C-172.114-108.918-164.413-131.821-147.253-148.981z"/>
	<path fill="#FFFFFF" d="M-12.182-100.116c1.437,22.447-6.264,45.346-23.424,62.506c-27.038,27.029-68.365,30.888-99.597,11.79
		c10.575-10.477,22.784-22.718,22.784-22.718c8.542-10.247-1.051-16.159-5.928-16.002l-57.08,0.016
		c-3.009,0-5.472-0.016-5.472-0.016s-2.487,0-5.505,0h-11.093c-3.017,0-5.472,2.463-5.48,5.484v78.484
		c-0.345,7.168,7.533,14.13,15.682,6.116c0,0,13.457-13.12,22.768-22.324C-116.944,37.976-49.909,34.043-6.943-8.922
		c25.059-25.075,36.767-58.336,35.37-91.186h-40.609V-100.116z"/>
</g>
</svg>
