<?xml version="1.0" encoding="utf-8"?>
<!-- Generator: Adobe Illustrator 16.0.0, SVG Export Plug-In . SVG Version: 6.00 Build 0)  -->
<!DOCTYPE svg PUBLIC "-//W3C//DTD SVG 1.1//EN" "http://www.w3.org/Graphics/SVG/1.1/DTD/svg11.dtd">
<svg version="1.1" id="Layer_1" xmlns="http://www.w3.org/2000/svg" xmlns:xlink="http://www.w3.org/1999/xlink" x="0px" y="0px"
	 width="240px" height="169.643px" viewBox="-208 -143.643 240 169.643" enable-background="new -208 -143.643 240 169.643"
	 xml:space="preserve">
<path fill="#FFFFFF" d="M13.036-75.786h-162.859l39.188-39.188c3.342-3.342,4.92-7.327,4.92-11.705
	c0-8.345-6.896-16.964-16.964-16.964c-4.502,0-8.432,1.636-11.704,4.92l-67.501,67.501c-2.783,2.783-5.616,6.217-5.616,12.4
	c0,6.179,2.365,9.161,5.479,12.276l67.638,67.625c3.272,3.28,7.202,4.92,11.704,4.92c10.077,0,16.964-8.614,16.964-16.964
	c0-4.374-1.578-8.366-4.92-11.704l-39.188-39.188H13.036c9.36,0,16.964-7.604,16.964-16.964C30-68.186,22.396-75.786,13.036-75.786z
	"/>
</svg>
